<svg width="1200" height="630" viewBox="0 0 1200 630" fill="none" xmlns="http://www.w3.org/2000/svg">
  <defs>
    <linearGradient id="bg" x1="0" y1="0" x2="1200" y2="630" gradientUnits="userSpaceOnUse">
      <stop stop-color="#0EA5E9"/>
      <stop offset="0.42" stop-color="#0F172A"/>
      <stop offset="1" stop-color="#020617"/>
    </linearGradient>
    <linearGradient id="badge" x1="0" y1="0" x2="1" y2="1">
      <stop stop-color="#38BDF8"/>
      <stop offset="1" stop-color="#2563EB"/>
    </linearGradient>
    <filter id="blur1" x="700" y="-120" width="560" height="560" filterUnits="userSpaceOnUse" color-interpolation-filters="sRGB">
      <feGaussianBlur stdDeviation="44"/>
    </filter>
  </defs>
  <rect width="1200" height="630" fill="url(#bg)"/>
  <g filter="url(#blur1)" opacity="0.46"><circle cx="1000" cy="140" r="190" fill="#38BDF8"/></g>
  <g opacity="0.1" stroke="#7DD3FC">
    <path d="M0.5 90H1199.5"/><path d="M0.5 180H1199.5"/><path d="M0.5 270H1199.5"/><path d="M0.5 360H1199.5"/><path d="M0.5 450H1199.5"/><path d="M0.5 540H1199.5"/>
    <path d="M171 0.5V629.5"/><path d="M342 0.5V629.5"/><path d="M513 0.5V629.5"/><path d="M684 0.5V629.5"/><path d="M855 0.5V629.5"/><path d="M1026 0.5V629.5"/>
  </g>
  <rect x="64" y="60" width="58" height="58" rx="18" fill="url(#badge)"/>
  <text x="93" y="98" text-anchor="middle" fill="white" font-family="Arial, Helvetica, sans-serif" font-size="30" font-weight="700">H</text>
  <text x="142" y="84" fill="#CBD5E1" font-family="Arial, Helvetica, sans-serif" font-size="22" letter-spacing="2">HELIOSTACK TECHNOLOGIES</text>
  <text x="142" y="116" fill="white" font-family="Arial, Helvetica, sans-serif" font-size="28" font-weight="700">Operator-first software</text>
  <rect x="842" y="60" width="294" height="44" rx="22" fill="#0F172A" fill-opacity="0.65" stroke="#7DD3FC" stroke-opacity="0.26"/>
  <circle cx="869" cy="82" r="5" fill="white"/>
  <text x="888" y="89" fill="white" font-family="Arial, Helvetica, sans-serif" font-size="18">Portfolio + product studio</text>
  <text x="64" y="220" fill="white" font-family="Arial, Helvetica, sans-serif" font-size="74" font-weight="700">Useful systems for small business operators.</text>
  <text x="64" y="282" fill="#E2E8F0" font-family="Arial, Helvetica, sans-serif" font-size="30">SaaS products, AI workflow tools, and practical technology services for clearer operations and faster follow-up.</text>
  <rect x="64" y="488" width="146" height="48" rx="18" fill="#0F172A" fill-opacity="0.6" stroke="#7DD3FC" stroke-opacity="0.22"/>
  <text x="137" y="518" text-anchor="middle" fill="#E2E8F0" font-family="Arial, Helvetica, sans-serif" font-size="22">CatchFlow</text>
  <rect x="228" y="488" width="122" height="48" rx="18" fill="#0F172A" fill-opacity="0.6" stroke="#7DD3FC" stroke-opacity="0.22"/>
  <text x="289" y="518" text-anchor="middle" fill="#E2E8F0" font-family="Arial, Helvetica, sans-serif" font-size="22">Pick.UP</text>
  <rect x="368" y="488" width="152" height="48" rx="18" fill="#0F172A" fill-opacity="0.6" stroke="#7DD3FC" stroke-opacity="0.22"/>
  <text x="444" y="518" text-anchor="middle" fill="#E2E8F0" font-family="Arial, Helvetica, sans-serif" font-size="22">SplatChain</text>
  <rect x="848" y="160" width="286" height="324" rx="30" fill="#0F172A" fill-opacity="0.86" stroke="#7DD3FC" stroke-opacity="0.26"/>
  <text x="878" y="198" fill="#94A3B8" font-family="Arial, Helvetica, sans-serif" font-size="15" letter-spacing="2">SIGNAL</text>
  <text x="878" y="240" fill="white" font-family="Arial, Helvetica, sans-serif" font-size="24" font-weight="700">What HelioStack builds</text>
  <line x1="878" y1="260" x2="1104" y2="260" stroke="#7DD3FC" stroke-opacity="0.26"/>
  <text x="878" y="300" fill="#E2E8F0" font-family="Arial, Helvetica, sans-serif" font-size="17">01  Follow-up automation</text>
  <text x="878" y="336" fill="#E2E8F0" font-family="Arial, Helvetica, sans-serif" font-size="17">02  AI receptionist workflows</text>
  <text x="878" y="372" fill="#E2E8F0" font-family="Arial, Helvetica, sans-serif" font-size="17">03  Provenance + trust tooling</text>
  <rect x="878" y="404" width="226" height="58" rx="18" fill="white" fill-opacity="0.04" stroke="#7DD3FC" stroke-opacity="0.2"/>
  <text x="894" y="430" fill="#94A3B8" font-family="Arial, Helvetica, sans-serif" font-size="13" letter-spacing="1.5">POSITIONING</text>
  <text x="894" y="455" fill="#E2E8F0" font-family="Arial, Helvetica, sans-serif" font-size="16">Built for owners who need clearer</text>
  <text x="894" y="478" fill="#E2E8F0" font-family="Arial, Helvetica, sans-serif" font-size="16">operations, not more dashboard noise.</text>
</svg>
