<svg width="1200" height="630" viewBox="0 0 1200 630" fill="none" xmlns="http://www.w3.org/2000/svg">
  <defs>
    <linearGradient id="bg" x1="0" y1="0" x2="1200" y2="630" gradientUnits="userSpaceOnUse">
      <stop stop-color="#A855F7"/>
      <stop offset="0.45" stop-color="#0F172A"/>
      <stop offset="1" stop-color="#020617"/>
    </linearGradient>
    <linearGradient id="badge" x1="0" y1="0" x2="1" y2="1">
      <stop stop-color="#C084FC"/>
      <stop offset="1" stop-color="#EC4899"/>
    </linearGradient>
    <filter id="blur1" x="720" y="-120" width="520" height="520" filterUnits="userSpaceOnUse" color-interpolation-filters="sRGB">
      <feGaussianBlur stdDeviation="40"/>
    </filter>
  </defs>
  <rect width="1200" height="630" fill="url(#bg)"/>
  <g filter="url(#blur1)" opacity="0.42"><circle cx="980" cy="140" r="180" fill="#E879F9"/></g>
  <g opacity="0.1" stroke="#E9D5FF">
    <path d="M0.5 90H1199.5"/><path d="M0.5 180H1199.5"/><path d="M0.5 270H1199.5"/><path d="M0.5 360H1199.5"/><path d="M0.5 450H1199.5"/><path d="M0.5 540H1199.5"/>
    <path d="M171 0.5V629.5"/><path d="M342 0.5V629.5"/><path d="M513 0.5V629.5"/><path d="M684 0.5V629.5"/><path d="M855 0.5V629.5"/><path d="M1026 0.5V629.5"/>
  </g>
  <rect x="64" y="60" width="58" height="58" rx="18" fill="url(#badge)"/>
  <text x="93" y="98" text-anchor="middle" fill="white" font-family="Arial, Helvetica, sans-serif" font-size="30" font-weight="700">P</text>
  <text x="142" y="84" fill="#CBD5E1" font-family="Arial, Helvetica, sans-serif" font-size="22" letter-spacing="2">HELIOSTACK APP</text>
  <text x="142" y="116" fill="white" font-family="Arial, Helvetica, sans-serif" font-size="28" font-weight="700">Pick.UP</text>
  <rect x="915" y="60" width="221" height="44" rx="22" fill="#0F172A" fill-opacity="0.65" stroke="#E9D5FF" stroke-opacity="0.26"/>
  <circle cx="942" cy="82" r="5" fill="white"/>
  <text x="960" y="89" fill="white" font-family="Arial, Helvetica, sans-serif" font-size="18">Active Product</text>
  <text x="64" y="228" fill="white" font-family="Arial, Helvetica, sans-serif" font-size="76" font-weight="700">Answer more calls. Follow up cleanly.</text>
  <text x="64" y="290" fill="#E2E8F0" font-family="Arial, Helvetica, sans-serif" font-size="30">An AI phone receptionist that captures customer intent and keeps the callback flow tight.</text>
  <rect x="64" y="488" width="210" height="48" rx="18" fill="#0F172A" fill-opacity="0.6" stroke="#E9D5FF" stroke-opacity="0.22"/>
  <text x="169" y="518" text-anchor="middle" fill="#E2E8F0" font-family="Arial, Helvetica, sans-serif" font-size="22">Always-on answering</text>
  <rect x="292" y="488" width="160" height="48" rx="18" fill="#0F172A" fill-opacity="0.6" stroke="#E9D5FF" stroke-opacity="0.22"/>
  <text x="372" y="518" text-anchor="middle" fill="#E2E8F0" font-family="Arial, Helvetica, sans-serif" font-size="22">Intent capture</text>
  <rect x="470" y="488" width="178" height="48" rx="18" fill="#0F172A" fill-opacity="0.6" stroke="#E9D5FF" stroke-opacity="0.22"/>
  <text x="559" y="518" text-anchor="middle" fill="#E2E8F0" font-family="Arial, Helvetica, sans-serif" font-size="22">Clean follow-up</text>
  <rect x="848" y="160" width="286" height="324" rx="30" fill="#0F172A" fill-opacity="0.86" stroke="#E9D5FF" stroke-opacity="0.26"/>
  <text x="878" y="198" fill="#94A3B8" font-family="Arial, Helvetica, sans-serif" font-size="15" letter-spacing="2">SIGNAL</text>
  <text x="878" y="240" fill="white" font-family="Arial, Helvetica, sans-serif" font-size="24" font-weight="700">Call flow</text>
  <line x1="878" y1="260" x2="1104" y2="260" stroke="#E9D5FF" stroke-opacity="0.26"/>
  <text x="878" y="300" fill="#E2E8F0" font-family="Arial, Helvetica, sans-serif" font-size="17">01  AI answers the call</text>
  <text x="878" y="336" fill="#E2E8F0" font-family="Arial, Helvetica, sans-serif" font-size="17">02  Captures customer intent</text>
  <text x="878" y="372" fill="#E2E8F0" font-family="Arial, Helvetica, sans-serif" font-size="17">03  Sends structured recap</text>
  <rect x="878" y="404" width="226" height="58" rx="18" fill="white" fill-opacity="0.04" stroke="#E9D5FF" stroke-opacity="0.2"/>
  <text x="894" y="430" fill="#94A3B8" font-family="Arial, Helvetica, sans-serif" font-size="13" letter-spacing="1.5">POSITIONING</text>
  <text x="894" y="455" fill="#E2E8F0" font-family="Arial, Helvetica, sans-serif" font-size="16">A practical AI front desk for</text>
  <text x="894" y="478" fill="#E2E8F0" font-family="Arial, Helvetica, sans-serif" font-size="16">small service businesses.</text>
</svg>
